<svg width="189" height="64" viewBox="0 0 189 64" fill="none" xmlns="http://www.w3.org/2000/svg">
<path d="M76.904 30V10.4H80.488V27.2H89.168V30H76.904ZM96.8899 30.336C95.1539 30.336 93.8099 29.7947 92.8579 28.712C91.9245 27.6293 91.4579 26.0427 91.4579 23.952V16.112H95.0139V23.616C95.0139 24.8107 95.2565 25.7253 95.7419 26.36C96.2272 26.9947 96.9925 27.312 98.0379 27.312C99.0272 27.312 99.8392 26.9573 100.474 26.248C101.127 25.5387 101.454 24.5493 101.454 23.28V16.112H105.038V30H101.874L101.594 27.648C101.165 28.4693 100.539 29.1227 99.7179 29.608C98.9152 30.0933 97.9725 30.336 96.8899 30.336ZM108.157 30V16.112H111.321L111.629 17.988C112.077 17.316 112.665 16.784 113.393 16.392C114.14 15.9813 114.998 15.776 115.969 15.776C118.116 15.776 119.637 16.6067 120.533 18.268C121.037 17.5027 121.709 16.896 122.549 16.448C123.408 16 124.341 15.776 125.349 15.776C127.16 15.776 128.55 16.3173 129.521 17.4C130.492 18.4827 130.977 20.0693 130.977 22.16V30H127.393V22.496C127.393 21.3013 127.16 20.3867 126.693 19.752C126.245 19.1173 125.545 18.8 124.593 18.8C123.622 18.8 122.838 19.1547 122.241 19.864C121.662 20.5733 121.373 21.5627 121.373 22.832V30H117.789V22.496C117.789 21.3013 117.556 20.3867 117.089 19.752C116.622 19.1173 115.904 18.8 114.933 18.8C113.981 18.8 113.206 19.1547 112.609 19.864C112.03 20.5733 111.741 21.5627 111.741 22.832V30H108.157ZM135.752 13.956C135.098 13.956 134.557 13.76 134.128 13.368C133.717 12.976 133.512 12.4813 133.512 11.884C133.512 11.2867 133.717 10.8013 134.128 10.428C134.557 10.036 135.098 9.84 135.752 9.84C136.405 9.84 136.937 10.036 137.348 10.428C137.777 10.8013 137.992 11.2867 137.992 11.884C137.992 12.4813 137.777 12.976 137.348 13.368C136.937 13.76 136.405 13.956 135.752 13.956ZM133.96 30V16.112H137.544V30H133.96ZM140.725 30V16.112H143.889L144.169 18.464C144.598 17.6427 145.214 16.9893 146.017 16.504C146.838 16.0187 147.799 15.776 148.901 15.776C150.618 15.776 151.953 16.3173 152.905 17.4C153.857 18.4827 154.333 20.0693 154.333 22.16V30H150.749V22.496C150.749 21.3013 150.506 20.3867 150.021 19.752C149.535 19.1173 148.779 18.8 147.753 18.8C146.745 18.8 145.914 19.1547 145.261 19.864C144.626 20.5733 144.309 21.5627 144.309 22.832V30H140.725ZM163.948 30.336C162.548 30.336 161.306 30.0373 160.224 29.44C159.141 28.8427 158.292 28.0027 157.676 26.92C157.06 25.8373 156.752 24.5867 156.752 23.168C156.752 21.7307 157.05 20.452 157.648 19.332C158.264 18.212 159.104 17.344 160.168 16.728C161.25 16.0933 162.52 15.776 163.976 15.776C165.338 15.776 166.542 16.0747 167.588 16.672C168.633 17.2693 169.445 18.0907 170.024 19.136C170.621 20.1627 170.92 21.3107 170.92 22.58C170.92 22.7853 170.91 23 170.892 23.224C170.892 23.448 170.882 23.6813 170.864 23.924H160.308C160.382 25.0067 160.756 25.856 161.428 26.472C162.118 27.088 162.949 27.396 163.92 27.396C164.648 27.396 165.254 27.2373 165.74 26.92C166.244 26.584 166.617 26.1547 166.86 25.632H170.5C170.238 26.5093 169.8 27.312 169.184 28.04C168.586 28.7493 167.84 29.3093 166.944 29.72C166.066 30.1307 165.068 30.336 163.948 30.336ZM163.976 18.688C163.098 18.688 162.324 18.94 161.652 19.444C160.98 19.9293 160.55 20.676 160.364 21.684H167.28C167.224 20.7693 166.888 20.0413 166.272 19.5C165.656 18.9587 164.89 18.688 163.976 18.688ZM162.968 14.992V12.472L169.296 9.056V11.968L162.968 14.992ZM76.904 54V34.4H80.488L89.7 48.204V34.4H93.284V54H89.7L80.488 40.224V54H76.904ZM101.228 54.336C100.033 54.336 99.053 54.1493 98.2877 53.776C97.5224 53.384 96.953 52.8707 96.5797 52.236C96.2064 51.6013 96.0197 50.9013 96.0197 50.136C96.0197 48.848 96.5237 47.8027 97.5317 47C98.5397 46.1973 100.052 45.796 102.068 45.796H105.596V45.46C105.596 44.508 105.325 43.808 104.784 43.36C104.242 42.912 103.57 42.688 102.768 42.688C102.04 42.688 101.405 42.8653 100.864 43.22C100.322 43.556 99.9864 44.06 99.8557 44.732H96.3557C96.449 43.724 96.785 42.8467 97.3637 42.1C97.961 41.3533 98.7264 40.784 99.6597 40.392C100.593 39.9813 101.638 39.776 102.796 39.776C104.774 39.776 106.333 40.2707 107.472 41.26C108.61 42.2493 109.18 43.6493 109.18 45.46V54H106.128L105.792 51.76C105.381 52.5067 104.802 53.1227 104.056 53.608C103.328 54.0933 102.385 54.336 101.228 54.336ZM102.04 51.536C103.066 51.536 103.86 51.2 104.42 50.528C104.998 49.856 105.362 49.0253 105.512 48.036H102.46C101.508 48.036 100.826 48.2133 100.416 48.568C100.005 48.904 99.7997 49.324 99.7997 49.828C99.7997 50.3693 100.005 50.7893 100.416 51.088C100.826 51.3867 101.368 51.536 102.04 51.536ZM118.036 54C116.58 54 115.414 53.6453 114.536 52.936C113.659 52.2267 113.22 50.9667 113.22 49.156V43.108H110.84V40.112H113.22L113.64 36.388H116.804V40.112H120.556V43.108H116.804V49.184C116.804 49.856 116.944 50.3227 117.224 50.584C117.523 50.8267 118.027 50.948 118.736 50.948H120.472V54H118.036ZM128.282 54.336C126.546 54.336 125.202 53.7947 124.25 52.712C123.316 51.6293 122.85 50.0427 122.85 47.952V40.112H126.406V47.616C126.406 48.8107 126.648 49.7253 127.134 50.36C127.619 50.9947 128.384 51.312 129.43 51.312C130.419 51.312 131.231 50.9573 131.866 50.248C132.519 49.5387 132.846 48.5493 132.846 47.28V40.112H136.43V54H133.266L132.986 51.648C132.556 52.4693 131.931 53.1227 131.11 53.608C130.307 54.0933 129.364 54.336 128.282 54.336ZM139.549 54V40.112H142.741L143.077 42.716C143.581 41.82 144.262 41.1107 145.121 40.588C145.998 40.0467 147.025 39.776 148.201 39.776V43.556H147.193C146.409 43.556 145.709 43.6773 145.093 43.92C144.477 44.1627 143.991 44.5827 143.637 45.18C143.301 45.7773 143.133 46.608 143.133 47.672V54H139.549ZM154.878 54.336C153.684 54.336 152.704 54.1493 151.938 53.776C151.173 53.384 150.604 52.8707 150.23 52.236C149.857 51.6013 149.67 50.9013 149.67 50.136C149.67 48.848 150.174 47.8027 151.182 47C152.19 46.1973 153.702 45.796 155.718 45.796H159.246V45.46C159.246 44.508 158.976 43.808 158.434 43.36C157.893 42.912 157.221 42.688 156.418 42.688C155.69 42.688 155.056 42.8653 154.514 43.22C153.973 43.556 153.637 44.06 153.506 44.732H150.006C150.1 43.724 150.436 42.8467 151.014 42.1C151.612 41.3533 152.377 40.784 153.31 40.392C154.244 39.9813 155.289 39.776 156.446 39.776C158.425 39.776 159.984 40.2707 161.122 41.26C162.261 42.2493 162.83 43.6493 162.83 45.46V54H159.778L159.442 51.76C159.032 52.5067 158.453 53.1227 157.706 53.608C156.978 54.0933 156.036 54.336 154.878 54.336ZM155.69 51.536C156.717 51.536 157.51 51.2 158.07 50.528C158.649 49.856 159.013 49.0253 159.162 48.036H156.11C155.158 48.036 154.477 48.2133 154.066 48.568C153.656 48.904 153.45 49.324 153.45 49.828C153.45 50.3693 153.656 50.7893 154.066 51.088C154.477 51.3867 155.018 51.536 155.69 51.536ZM165.69 54V33.84H169.274V54H165.69ZM178.117 54.336C176.885 54.336 175.802 54.14 174.869 53.748C173.935 53.3373 173.189 52.7773 172.629 52.068C172.069 51.3587 171.733 50.5373 171.621 49.604H175.233C175.345 50.1453 175.643 50.612 176.129 51.004C176.633 51.3773 177.277 51.564 178.061 51.564C178.845 51.564 179.414 51.4053 179.769 51.088C180.142 50.7707 180.329 50.4067 180.329 49.996C180.329 49.3987 180.067 48.9973 179.545 48.792C179.022 48.568 178.294 48.3533 177.361 48.148C176.763 48.0173 176.157 47.8587 175.541 47.672C174.925 47.4853 174.355 47.252 173.833 46.972C173.329 46.6733 172.918 46.3 172.601 45.852C172.283 45.3853 172.125 44.816 172.125 44.144C172.125 42.912 172.61 41.876 173.581 41.036C174.57 40.196 175.951 39.776 177.725 39.776C179.367 39.776 180.674 40.1587 181.645 40.924C182.634 41.6893 183.222 42.744 183.409 44.088H180.021C179.815 43.0613 179.041 42.548 177.697 42.548C177.025 42.548 176.502 42.6787 176.129 42.94C175.774 43.2013 175.597 43.528 175.597 43.92C175.597 44.3307 175.867 44.6573 176.409 44.9C176.95 45.1427 177.669 45.3667 178.565 45.572C179.535 45.796 180.422 46.048 181.225 46.328C182.046 46.5893 182.699 46.9907 183.185 47.532C183.67 48.0547 183.913 48.8107 183.913 49.8C183.931 50.6587 183.707 51.4333 183.241 52.124C182.774 52.8147 182.102 53.356 181.225 53.748C180.347 54.14 179.311 54.336 178.117 54.336Z" fill="#F0F1F1"/>
<path fill-rule="evenodd" clip-rule="evenodd" d="M15 0H0V15C0 24.3888 7.61116 32 17 32C7.61116 32 0 39.6112 0 49V64H15C24.3888 64 32 56.3888 32 47C32 56.3888 39.6112 64 49 64H64V49C64 39.6112 56.3888 32 47 32C56.3888 32 64 24.3888 64 15V0H49C39.6112 0 32 7.61116 32 17C32 7.61116 24.3888 0 15 0Z" fill="#C6D8BD"/>
</svg>
